<?xml version="1.0" encoding="UTF-8" standalone="no"?>
<!-- Created with Inkscape (http://www.inkscape.org/) -->

<svg
   xmlns:dc="http://purl.org/dc/elements/1.1/"
   xmlns:cc="http://creativecommons.org/ns#"
   xmlns:rdf="http://www.w3.org/1999/02/22-rdf-syntax-ns#"
   xmlns:svg="http://www.w3.org/2000/svg"
   xmlns="http://www.w3.org/2000/svg"
   version="1.1"
   width="744.09448"
   height="1052.3622"
   id="svg2">
  <defs
     id="defs4" />
  <metadata
     id="metadata7">
    <rdf:RDF>
      <cc:Work
         rdf:about="">
        <dc:format>image/svg+xml</dc:format>
        <dc:type
           rdf:resource="http://purl.org/dc/dcmitype/StillImage" />
        <dc:title></dc:title>
      </cc:Work>
    </rdf:RDF>
  </metadata>
  <g
     id="layer1">
    <path
       d="m 153.89305,280.61703 c 0.37998,2.65988 0.40181,5.39613 1.13995,7.97964 0.79501,2.78252 2.2799,5.31976 3.41985,7.97964 12.45163,29.05381 -4.94536,-11.10779 6.83969,14.81933 0.84675,1.86285 1.28614,3.91098 2.27989,5.69974 0.92268,1.66082 2.49717,2.89897 3.41985,4.55979 0.99376,1.78877 1.51993,3.79983 2.2799,5.69975 0.75996,1.89991 1.5806,3.77667 2.27989,5.69974 0.82129,2.25853 1.28544,4.65188 2.2799,6.83969 0.91685,2.01706 2.34383,3.76291 3.41985,5.69974 0.82527,1.48549 1.51993,3.03987 2.27989,4.5598 0.75997,1.51993 1.6105,2.99786 2.2799,4.55979 2.74051,6.39452 -0.90099,0.41817 3.41985,7.97964 0.67973,1.18954 1.7402,2.16057 2.27989,3.41985 0.61716,1.44003 0.70954,3.05336 1.13995,4.55979 0.0292,0.10234 2.2762,6.81382 2.2799,6.83969 0.21495,1.50466 -0.36864,3.08525 0,4.5598 0.41215,1.64859 1.51993,3.03986 2.2799,4.55979 0,1.89991 -0.18905,3.80926 0,5.69974 0.19279,1.92793 0.89962,3.77717 1.13994,5.69975 0.1414,1.13114 0,2.27989 0,3.41984 0,3.79983 0,7.59966 0,11.39949 0,0.0683 0.23022,8.42893 0,9.11959 -0.16993,0.5098 -0.94037,0.641 -1.13994,1.13994 -0.58187,1.45466 -0.8327,3.02351 -1.13995,4.5598 -0.0745,0.3726 0.21077,0.82378 0,1.13995 -0.59617,0.89425 -1.74667,1.34675 -2.2799,2.27989 -1.69448,2.96535 -2.37505,7.45058 -4.55979,10.25954 -4.34272,5.58349 -5.45976,5.11977 -10.25954,9.11959 -0.82565,0.68804 -1.31861,1.79925 -2.2799,2.2799 -1.40131,0.70065 -3.05336,0.70954 -4.55979,1.13994 -1.15538,0.33011 -2.30418,0.69369 -3.41985,1.13995 -0.78889,0.31556 -1.4556,0.93388 -2.27989,1.13995 -0.73728,0.18432 -1.51994,0 -2.2799,0 -2.2799,0 -4.5598,0 -6.83969,0"
       id="path2985"
       style="fill:none;stroke:#000000;stroke-width:1px;stroke-linecap:butt;stroke-linejoin:miter;stroke-opacity:1" />
    <path
       d="m 263.32811,289.73662 c 0,8.439 0.70561,3.18934 -2.2799,11.39948 -0.82128,2.25853 -1.28543,4.65188 -2.27989,6.83969 -0.91685,2.01707 -2.503,3.68268 -3.41985,5.69974 -0.99446,2.18782 -1.11279,4.7389 -2.2799,6.8397 -2.27285,4.09113 -3.62005,1.94076 -4.55979,5.69974 -0.18432,0.73727 0,1.51993 0,2.2799 0,2.27989 0.32243,4.5827 0,6.83969 -0.33987,2.37907 -1.88481,4.46916 -2.2799,6.83969 -0.1874,1.12444 0,2.27989 0,3.41984 0,1.89992 0,3.79983 0,5.69975 0,1.13994 0.12589,2.28687 0,3.41984 -0.25524,2.29721 -0.93069,4.53784 -1.13995,6.83969 -0.30961,3.4058 0.34029,6.85667 0,10.25954 1.51702,3.9264 -1.89302,6.77769 -2.27989,10.25954 -0.25178,2.26595 0,4.55979 0,6.83969 0,3.41984 0,6.83969 0,10.25953 0,6.45971 0,12.91942 0,19.37913 0,1.13995 0,2.2799 0,3.41985 0,0.75996 -0.42156,1.64756 0,2.27989 0.0708,3.2098 2.57018,0.29028 3.41984,1.13995 1.34344,1.34344 1.72051,3.71013 3.41985,4.55979 1.07475,0.53738 2.42004,0.47342 3.41984,1.13995 0.31617,0.21078 -0.33986,0.97002 0,1.13995 0.67974,0.33987 1.64757,-0.42155 2.2799,0 0.70697,0.47131 0.63015,1.60016 1.13995,2.2799 0.64485,0.8598 1.6085,1.44065 2.2799,2.2799 1.71172,2.13965 2.91573,4.64761 4.55979,6.83969 2.20166,2.93555 -0.13895,-0.63945 3.41985,1.13995 0.33986,0.16993 -0.26869,0.87126 0,1.13994 0.53737,0.53738 1.60016,-0.33986 2.27989,0 0.48065,0.24033 0.75997,0.75997 1.13995,1.13995"
       id="path2987"
       style="fill:none;stroke:#000000;stroke-width:1px;stroke-linecap:butt;stroke-linejoin:miter;stroke-opacity:1" />
    <path
       d="m 196.07115,378.6526 c 4.17981,0 8.35962,0 12.53943,0 8.41521,0 7.62066,0.37616 15.95928,-1.13995 1.54144,-0.28026 3.00883,-0.91838 4.55979,-1.13995 1.1285,-0.16121 2.2799,0 3.41985,0 1.51993,0 3.03986,0 4.55979,0 0.60898,0 5.37349,-0.16312 5.69975,0 0.48064,0.24033 0.75996,0.75997 1.13995,1.13995"
       id="path2989"
       style="fill:none;stroke:#000000;stroke-width:1px;stroke-linecap:butt;stroke-linejoin:miter;stroke-opacity:1" />
    <path
       d="m 292.96677,403.73147 c 4.93978,0 9.87956,0 14.81933,0 0.75997,0 1.51993,0 2.2799,0 0.37998,0 0.87126,0.26869 1.13995,0 4.44892,-4.44892 -0.26387,-0.61221 1.13995,-3.41985 -0.2425,-2.36992 1.77009,-0.46021 2.27989,-1.13995 1.01961,-1.35946 1.21834,-3.23283 2.2799,-4.55979 0.53078,-0.66348 1.57293,-0.66864 2.2799,-1.13995 0.37998,-0.37998 0.75996,-0.75996 1.13995,-1.13995 0,-0.37998 -0.26869,-0.87126 0,-1.13995 0.26869,-0.26868 0.87126,0.26869 1.13995,0 0.48618,-0.48618 -0.59538,-2.87526 -1.13995,-3.41984 -0.26869,-0.26869 -0.75997,0 -1.13995,0 -5.69974,0 -11.39949,0 -17.09923,0 -0.27647,0 -3.38318,-0.0367 -3.41984,0 -0.26869,0.26869 0.16993,0.80008 0,1.13995 -0.24033,0.48064 -0.89963,0.6593 -1.13995,1.13995 -0.16994,0.33986 0.16993,0.80008 0,1.13994 -0.24033,0.48065 -0.89963,0.65931 -1.13995,1.13995 -0.30541,0.61083 0.27672,6.37848 0,6.83969 -0.9775,1.62917 -3.41985,2.65988 -3.41985,4.5598 0,2.89386 2.5883,5.20782 3.41985,7.97964 0.32756,1.09187 0,2.2799 0,3.41984 0,4.17982 0,8.35963 0,12.53944 0,0.75996 0,1.51993 0,2.27989 0,1.13995 -0.36049,2.3384 0,3.41985 0.12016,0.36048 0.75996,0 1.13995,0 0.37998,0 0.75996,0 1.13995,0 2.40036,0 2.04796,-0.11596 4.55979,1.13995 0.75996,0.37998 1.4556,0.93387 2.2799,1.13995 1.10591,0.27648 2.33839,-0.36049 3.41984,0 0.80607,0.26869 1.4556,0.93387 2.2799,1.13995 0.73727,0.18431 1.51993,0 2.2799,0 3.41984,0 6.83969,0 10.25953,0 6.09524,0 3.02435,0 9.11959,0 1.13995,0 2.29136,0.16121 3.41985,0 8.29487,-1.18499 1.57989,-0.52664 6.83969,-2.2799 0.36048,-0.12016 0.75996,0 1.13995,0 0.37998,-0.37998 0.6593,-0.89963 1.13994,-1.13995 0.33987,-0.16993 0.97002,0.33987 1.13995,0 2.81728,-5.63455 -2.52949,0.24959 1.13995,-3.41985"
       id="path2991"
       style="fill:none;stroke:#000000;stroke-width:1px;stroke-linecap:butt;stroke-linejoin:miter;stroke-opacity:1" />
    <path
       d="m 383.02271,284.03687 c 0,14.81933 0,29.63866 0,44.458 0,14.05936 0,28.11873 0,42.17809 0,3.03986 0,6.07973 0,9.11959 0,2.65988 0,5.31976 0,7.97964 0,0.75996 -0.18432,1.54262 0,2.2799 1.37618,5.50474 0.54172,-0.0565 2.27989,3.41984 0.16994,0.33987 -0.12016,0.77947 0,1.13995 0.26869,0.80607 0.97332,1.44673 1.13995,2.2799 0.22356,1.11781 0,2.27989 0,3.41984 0,1.51993 0,3.03987 0,4.5598 0,7.59965 0,15.19931 0,22.79897 0,6.04489 -0.36048,0.83796 1.13995,6.83969 0.0922,0.36864 0,1.51993 0,1.13995 0,-0.75997 0,-1.51993 0,-2.2799"
       id="path2993"
       style="fill:none;stroke:#000000;stroke-width:1px;stroke-linecap:butt;stroke-linejoin:miter;stroke-opacity:1" />
    <path
       d="m 435.46034,274.91728 c 0,22.03901 0,44.07801 0,66.11702 0,4.93978 0,9.87955 0,14.81933 0,1.51993 0,3.03986 0,4.55979 0,1.13995 -0.18741,2.29541 0,3.41985 0.19754,1.18526 0.9424,2.23458 1.13995,3.41985 0.1874,1.12443 0,2.27989 0,3.41984 0,6.09524 0,3.02435 0,9.11959 0,2.2799 -0.20641,4.56916 0,6.83969 0.67902,7.4692 1.51034,4.07434 2.27989,12.53943 0.17201,1.89212 0,3.79983 0,5.69975 0,2.65988 0,5.31976 0,7.97964 0,7.59965 0,15.19931 0,22.79897"
       id="path2995"
       style="fill:none;stroke:#000000;stroke-width:1px;stroke-linecap:butt;stroke-linejoin:miter;stroke-opacity:1" />
    <path
       d="m 536.91576,386.63224 c -9.87956,0 -19.75911,0 -29.63866,0 -1.89992,0 -3.79983,0 -5.69975,0 -0.37998,0 -0.75996,0 -1.13994,0 -0.37999,0 -0.80009,-0.16993 -1.13995,0 -0.48065,0.24032 -0.69283,0.84187 -1.13995,1.13995 -0.70697,0.47131 -1.51993,0.75996 -2.2799,1.13995 -0.75996,0.75996 -1.38565,1.68373 -2.2799,2.27989 -1.41393,0.94263 -3.08435,1.4368 -4.55979,2.2799 -1.18953,0.67974 -2.24504,1.57502 -3.41985,2.2799 -0.72858,0.43715 -1.57293,0.66864 -2.27989,1.13995 -0.44713,0.29808 -0.65931,0.89962 -1.13995,1.13995 -0.33987,0.16993 -0.97002,-0.33987 -1.13995,0 -0.33987,0.67973 0.14904,1.53469 0,2.27989 -0.23566,1.17828 -0.60257,2.34509 -1.13995,3.41985 -1.73817,3.47634 -0.90371,-2.0849 -2.2799,3.41984 -0.18431,0.73728 0.18432,1.54263 0,2.2799 -0.20607,0.8243 -0.87126,1.47383 -1.13994,2.2799 -0.0796,0.23875 -0.0733,4.26672 0,4.55979 0.29143,1.16574 0.75996,2.2799 1.13994,3.41985 0.37999,1.13995 0.75997,2.2799 1.13995,3.41984 0.37999,1.13995 0.9043,2.24157 1.13995,3.41985 0.12693,0.63463 -0.11101,4.44878 0,4.55979 0.26869,0.26869 0.87126,-0.26869 1.13995,0 0.26869,0.26869 -0.26869,0.87126 0,1.13995 0.26869,0.26869 0.87126,-0.26869 1.13995,0 1.88364,1.88365 0.77875,2.39262 1.13995,4.5598 1.57997,9.47985 0.31241,0.93725 2.27989,6.83969 0.12017,0.36048 -0.33986,0.97001 0,1.13995 0.67974,0.33986 1.60017,-0.33987 2.2799,0 0.96129,0.48064 1.31861,1.79925 2.2799,2.27989 0.67973,0.33987 1.55893,-0.24032 2.2799,0 0.5098,0.16994 0.6593,0.89963 1.13994,1.13995 0.33987,0.16993 0.80009,-0.16993 1.13995,0 0.48065,0.24032 0.65931,0.89963 1.13995,1.13995 0.67973,0.33987 1.54262,-0.18432 2.2799,0 1.16573,0.29143 2.24157,0.90429 3.41984,1.13995 1.86302,0.3726 3.82568,-0.31235 5.69975,0 1.18526,0.19754 2.23031,0.97001 3.41984,1.13995 1.50466,0.21495 3.05514,-0.21495 4.5598,0 1.18953,0.16993 2.23031,0.97001 3.41984,1.13995 2.25698,0.32242 4.5598,0 6.83969,0 0.75997,0 1.51993,0 2.2799,0 0.37998,0 0.77946,0.12016 1.13995,0 2.06324,0.68707 2.1201,-1.84665 3.41984,-2.2799 0.72097,-0.24032 1.54263,0.18432 2.2799,0 0.8243,-0.20608 1.491,-0.82439 2.2799,-1.13995 0.74196,-0.29679 4.80861,-1.38877 5.69974,-2.2799 0.60081,-0.6008 0.87126,-1.47383 1.13995,-2.27989 0.12016,-0.36049 -0.26869,-0.87126 0,-1.13995 0.26869,-0.26869 0.87126,0.26869 1.13995,0 0.23304,-0.23305 -0.22599,-2.96787 0,-3.41985 0.48064,-0.96129 2.01923,-1.23723 2.27989,-2.2799 0.27648,-1.10591 -0.42336,-2.36143 0,-3.41984 0.39916,-0.99788 1.79926,-1.31861 2.2799,-2.2799 0.0892,-0.17835 0,-5.38104 0,-5.69974 0,-4.93978 0,-9.87955 0,-14.81933 0,-2.2799 0,-4.5598 0,-6.83969 0,-0.37999 0.26869,-0.87126 0,-1.13995 -0.26869,-0.26869 -0.87126,0.26869 -1.13995,0 -0.26869,-0.26869 0.26869,-0.87126 0,-1.13995 -0.26869,-0.26869 -0.80008,0.16993 -1.13995,0 -0.96128,-0.48064 -1.38564,-1.68373 -2.27989,-2.2799 -0.70697,-0.47131 -1.67909,-0.53914 -2.2799,-1.13995 -0.26869,-0.26868 0.26869,-0.87126 0,-1.13994 -0.6008,-0.60081 -1.57293,-0.66864 -2.2799,-1.13995 -0.48318,-0.32212 -3.18402,-2.94819 -3.41984,-3.41985 -1.51993,-3.03986 7.59965,-0.75996 0,-6.83969 -1.51297,-1.21037 -3.7622,1.13995 -5.69974,1.13995 -0.37999,0 0.26868,-0.87126 0,-1.13995 -0.26869,-0.26869 -0.87126,0.26869 -1.13995,0 -1.78627,-1.78627 -0.23985,-3.41985 -3.41985,-3.41985"
       id="path2997"
       style="fill:none;stroke:#000000;stroke-width:1px;stroke-linecap:butt;stroke-linejoin:miter;stroke-opacity:1" />
    <path
       d="m 166.43249,508.60673 c 0.44977,3.38262 -0.56222,6.88623 0,10.25954 0.45478,2.72868 1.60896,5.29592 2.27989,7.97964 0.46993,1.87969 0.71964,3.80834 1.13995,5.69974 0.33987,1.5294 0.80008,3.0304 1.13995,4.5598 1.25331,5.63987 2.47007,11.40056 3.41985,17.09922 0.44172,2.65033 0.64478,5.33878 1.13994,7.97964 0.64562,3.44327 1.73352,6.79914 2.2799,10.25954 0.13961,0.88417 1.92809,20.16384 2.2799,21.65902 8.72542,37.08304 -1.82781,-25.18341 4.55979,21.65903 0.57401,4.20938 1.35831,8.39226 2.2799,12.53943 1.45467,6.54603 3.51875,10.33245 4.55979,17.09923 1.45543,9.46026 -1.50055,2.69863 1.13995,7.97964 0.37998,0.75996 0.53914,1.67909 1.13995,2.27989 0.26869,0.26869 0,-0.75996 0,-1.13994 0,-1.71194 -0.30211,-4.18921 0,-5.69975 -0.68708,-2.06324 1.84665,-2.1201 2.2799,-3.41984 0.45571,-1.36715 -0.28486,-3.13552 0,-4.5598 1.05098,-5.25492 1.67505,-5.5835 3.41984,-11.39948 0.45019,-1.50064 0.58984,-3.09284 1.13995,-4.5598 0.1101,-0.2936 4.52991,-8.98508 4.5598,-9.11958 0.41214,-1.85468 -0.23566,-3.8145 0,-5.69975 0.14904,-1.19233 0.75996,-2.27989 1.13994,-3.41984 0.37999,-2.2799 0.93069,-4.53784 1.13995,-6.83969 0.17201,-1.89212 -0.20981,-3.81145 0,-5.69975 1.17803,-10.60224 0.83883,0.66679 2.2799,-7.97964 0.18741,-1.12443 0,-2.27989 0,-3.41984 0,-0.75997 -0.33987,-1.60017 0,-2.2799 3.29036,-6.58072 1.76025,2.59822 3.41985,-5.69974 0.14904,-0.74521 -0.18432,-1.54262 0,-2.2799 0.20607,-0.8243 0.87126,-1.47383 1.13994,-2.2799 0.12016,-0.36048 -0.16993,-0.80008 0,-1.13994 0.24033,-0.48065 0.97002,-0.63015 1.13995,-1.13995 0.24032,-0.72097 -0.24032,-1.55893 0,-2.2799 0.16994,-0.5098 0.75997,-0.75997 1.13995,-1.13995 0,-1.13995 0,-2.2799 0,-3.41984 0,-1.89992 0,-3.79983 0,-5.69975 0,-0.37998 -0.37998,-1.13995 0,-1.13995 0.37998,0 -0.0922,0.77132 0,1.13995 0.29143,1.16574 0.80984,2.26447 1.13995,3.41985 1.80893,6.33124 1.09039,5.35282 2.2799,13.67938 3.33052,23.31365 -0.87773,-11.41044 1.13994,14.81933 0.17728,2.30454 0.75997,4.5598 1.13995,6.83969 0.37999,3.79983 0.90174,7.58814 1.13995,11.39949 0.0784,1.25455 -0.0915,14.17899 0,14.81933 0.39122,2.73851 1.85926,5.24549 2.2799,7.97964 0,13.33348 -0.55296,1.24206 1.13995,11.39948 0.0711,0.42636 -0.0758,4.40824 0,4.5598 0.16993,0.33987 1.13995,-0.37998 1.13995,0 0,0.37998 -1.13995,-0.37998 -1.13995,0 0,0.53738 0.89962,0.6593 1.13995,1.13995 0.16993,0.33986 -0.26869,0.87126 0,1.13995 0.26868,0.26868 0.87126,-0.26869 1.13994,0 0.26869,0.26868 -0.12016,0.77946 0,1.13994 0.26869,0.80607 0.93388,1.4556 1.13995,2.2799 0.18432,0.73728 -0.24032,1.55893 0,2.2799 0.16994,0.5098 0.89963,0.6593 1.13995,1.13995 0.0877,0.17537 -0.4969,3.91674 1.13995,2.27989 0.26869,-0.26868 0,-0.75996 0,-1.13994 0,-2.96524 -0.29306,-6.18896 0,-9.11959 0.65787,-6.57873 1.32107,-7.38305 3.41985,-13.67939 1.51993,-4.55979 2.87213,-9.17896 4.55979,-13.67938 0.0152,-0.0407 9.1145,-22.7837 9.11959,-22.79897 1.37005,-4.11014 2.26028,-8.36502 3.41984,-12.53943 0.74039,-2.6654 1.51994,-5.31976 2.2799,-7.97964 0.75997,-2.65988 1.485,-5.32999 2.2799,-7.97964 0.34528,-1.15094 0.90429,-2.24157 1.13995,-3.41985 0.14904,-0.7452 -0.18432,-1.54262 0,-2.27989 0.20607,-0.8243 0.82439,-1.491 1.13995,-2.2799 0.44626,-1.11567 0.80984,-2.26447 1.13994,-3.41985 0.43041,-1.50643 0.80009,-3.03039 1.13995,-4.55979 0.42031,-1.8914 0.57015,-3.84788 1.13995,-5.69974 0.95477,-3.10301 2.39319,-6.03962 3.41985,-9.11959 0.49543,-1.48631 0.64451,-3.07348 1.13994,-4.5598 0.64709,-1.94126 1.47384,-3.81892 2.2799,-5.69974 0.3347,-0.78097 0.93388,-1.4556 1.13995,-2.2799 0.18432,-0.73727 0,-1.51993 0,-2.27989 0,-0.37999 -0.37998,-1.13995 0,-1.13995 0.37998,0 0,1.51993 0,1.13995 0,-1.89992 0,-3.79983 0,-5.69975 0,-5.31976 0,-10.63952 0,-15.95927"
       id="path2999"
       style="fill:none;stroke:#000000;stroke-width:1px;stroke-linecap:butt;stroke-linejoin:miter;stroke-opacity:1" />
    <path
       d="m 304.36626,599.80262 c 0.25535,-4.34241 0.15585,-6.43782 -3.41985,-9.11959 -1.99211,-1.49409 -3.40075,-1.1304 -5.69974,-2.2799 -1.22541,-0.6127 -2.10251,-1.90352 -3.41985,-2.2799 -1.46145,-0.41755 -3.05513,0.21495 -4.55979,0 -10.50302,-1.50043 3.4755,-1.13995 -6.83969,-1.13995 -1.89992,0 -3.79983,0 -5.69974,0 -0.37999,0 -0.97002,-0.33986 -1.13995,0 -0.33987,0.67974 0.24032,1.55894 0,2.2799 -0.16994,0.5098 -0.84187,0.69283 -1.13995,1.13995 -0.47131,0.70697 -0.75997,1.51993 -1.13995,2.2799 -1.13995,0.75996 -2.54276,1.22739 -3.41985,2.27989 -1.08788,1.30547 -1.51993,3.03987 -2.27989,4.5598 -0.37999,0.75996 -0.87126,1.47383 -1.13995,2.2799 -0.12016,0.36048 0.26869,0.87126 0,1.13994 -0.26869,0.26869 -0.97002,-0.33986 -1.13995,0 -0.33987,0.67974 0.14904,1.53469 0,2.2799 -0.23565,1.17828 -0.80984,2.26447 -1.13995,3.41985 -0.43041,1.50643 -0.68976,3.05916 -1.13995,4.55979 -0.69056,2.30187 -1.57314,4.54274 -2.27989,6.83969 -1.80404,5.86311 -3.68683,12.12841 -4.5598,18.23918 -0.10747,0.75233 0,1.51993 0,2.2799 0,1.51993 0,3.03986 0,4.55979 0,2.2799 0,4.55979 0,6.83969 0,0.51339 -0.17346,3.07292 0,3.41985 0.24032,0.48064 0.75997,0.75996 1.13995,1.13995 0,0.75996 -0.24032,1.55893 0,2.27989 0.16993,0.5098 0.75997,0.75997 1.13995,1.13995 0.75997,0.75997 1.38565,1.68373 2.2799,2.2799 0.31616,0.21077 0.80008,-0.16994 1.13995,0 1.2254,0.6127 2.14778,1.77107 3.41984,2.2799 0.70561,0.28224 1.53469,-0.14905 2.2799,0 9.37274,3.12424 -2.40322,-0.40054 6.83969,1.13994 1.18526,0.19755 2.24157,0.9043 3.41984,1.13995 0.74521,0.14904 1.51994,0 2.2799,0 3.41985,0 6.83969,0 10.25954,0 1.51993,0 3.03986,0 4.55979,0 0.37999,0 0.87126,0.26869 1.13995,0 0.26869,-0.26869 0,-0.75996 0,-1.13995 0.37998,-0.37998 0.69282,-0.84186 1.13995,-1.13994 0.70697,-0.47132 1.84275,-0.41137 2.2799,-1.13995 0.80606,-1.34345 0.43929,-3.15849 1.13995,-4.5598 0.48064,-0.96129 1.68373,-1.38565 2.27989,-2.27989 1.1793,-1.76895 -1.93646,-0.74169 1.13995,-2.2799 0.33987,-0.16994 0.97002,0.33987 1.13995,0 0.33987,-0.67974 0,-1.51993 0,-2.2799 0,-2.2799 0,-4.55979 0,-6.83969 0,-1.37185 -0.2568,-3.27582 0,-4.55979 0.23565,-1.17828 0.9424,-2.23459 1.13995,-3.41985 0.1874,-1.12444 -0.18741,-2.29541 0,-3.41985 0.19754,-1.18526 0.90429,-2.24156 1.13995,-3.41984 0.14904,-0.74521 -0.14905,-1.53469 0,-2.2799 0.23565,-1.17827 0.90429,-2.24157 1.13994,-3.41984 0.14905,-0.74521 0,-1.51993 0,-2.2799 0,-2.2799 0,-4.55979 0,-6.83969 0,-1.13995 -0.36048,-2.3384 0,-3.41985 0.73378,-2.20133 2.47433,0.13849 1.13995,-3.41984 -0.89501,-2.38671 -2.27989,-4.5598 -3.41984,-6.83969 z"
       id="path3001"
       style="fill:none;stroke:#000000;stroke-width:1px;stroke-linecap:butt;stroke-linejoin:miter;stroke-opacity:1" />
    <path
       d="m 322.60543,589.54308 c 0,7.21967 0,14.43935 0,21.65902 0,9.11959 0,18.23918 0,27.35877 0,4.93977 0,9.87955 0,14.81933 0,0.95527 0.24225,5.21524 0,5.69974 -0.16993,0.33987 -0.87126,-0.26869 -1.13994,0 -0.26869,0.26869 0,0.75997 0,1.13995 0,0.75996 0.33986,1.60016 0,2.2799 -0.16994,0.33986 -0.75997,0 -1.13995,0 -0.37999,0 -0.87126,0.26868 -1.13995,0 -0.60081,-0.60081 -0.87126,-1.47384 -1.13995,-2.2799 -0.12016,-0.36049 0,-0.75997 0,-1.13995 0,-0.75997 0,-1.51993 0,-2.2799 0,-1.51993 0,-3.03986 0,-4.55979 0,-3.03986 0,-6.07973 0,-9.11959 0,-1.51993 -0.18852,-3.0516 0,-4.55979 0.37998,-1.51994 0.75997,-3.03987 1.13995,-4.5598 0.37998,-0.37998 0.97001,-0.63015 1.13995,-1.13995 0.24032,-0.72096 -0.18432,-1.54262 0,-2.27989 0.20607,-0.8243 0.93387,-1.4556 1.13995,-2.2799 0.18431,-0.73728 -0.28225,-1.57429 0,-2.2799 0.81725,-2.04314 2.86657,-3.48667 3.41984,-5.69974 0.18432,-0.73728 -0.33987,-1.60016 0,-2.2799 0.48065,-0.96129 1.79925,-1.31861 2.2799,-2.27989 0.70065,-1.40131 0.49164,-3.13352 1.13995,-4.5598 11.65674,-25.64483 -2.03171,6.76467 9.11959,-13.67938 1.15078,-2.10978 1.38736,-4.60836 2.27989,-6.83969 3.99704,-9.99261 0.44685,0.24625 4.5598,-7.97964 0.16993,-0.33987 -0.33987,-0.97002 0,-1.13995 0.67973,-0.33987 1.51993,0 2.27989,0 2.65988,0 5.31976,0 7.97964,0 3.79983,0 7.59966,0 11.39949,0 0.37998,0 0.75996,0 1.13995,0 0.37998,0 0.87126,-0.26869 1.13995,0 0.6008,0.6008 0.53914,1.67909 1.13994,2.2799 0.26869,0.26868 0.97002,-0.33987 1.13995,0 0.33987,0.67973 0,1.51993 0,2.27989 0,0.37999 -0.26869,0.87126 0,1.13995 0.26869,0.26869 0.75997,0 1.13995,0 0.37998,0.75997 0.75997,1.51993 1.13995,2.2799"
       id="path3003"
       style="fill:none;stroke:#000000;stroke-width:1px;stroke-linecap:butt;stroke-linejoin:miter;stroke-opacity:1" />
    <path
       d="m 406.96163,485.80776 c 0,56.61745 0,113.23489 0,169.85233"
       id="path3005"
       style="fill:none;stroke:#000000;stroke-width:1px;stroke-linecap:butt;stroke-linejoin:miter;stroke-opacity:1" />
    <path
       d="m 477.63843,611.2021 c -6.07972,0 -12.15945,0 -18.23917,0 -0.75997,0 -1.51993,0 -2.2799,0 -0.37998,0 -0.87126,-0.26869 -1.13995,0 -0.6008,0.60081 -0.66864,1.57293 -1.13995,2.2799 -0.29808,0.44712 -1.00961,0.61861 -1.13994,1.13995 -0.27648,1.10591 0.27647,2.31393 0,3.41984 -0.13034,0.52133 -0.75997,0.75997 -1.13995,1.13995 -0.98893,0.98893 -4.07632,3.75401 -4.5598,4.5598 -0.61822,1.03037 -0.71803,2.29474 -1.13995,3.41984 -0.71849,1.91598 -1.44882,3.82984 -2.27989,5.69974 -0.75997,1.51993 -1.51993,3.03987 -2.2799,4.5598 0,0.75996 0.28224,1.57428 0,2.27989 -0.50882,1.27206 -1.77107,2.14779 -2.2799,3.41985 -0.28224,0.70561 0,1.51993 0,2.2799 0,2.65988 0,5.31976 0,7.97964 0,1.13939 -0.24381,4.72447 0,5.69974 0.29144,1.16573 0.84852,2.25411 1.13995,3.41985 0.0922,0.36863 -0.21078,0.82378 0,1.13994 0.59617,0.89425 1.51993,1.51993 2.2799,2.2799 1.5141,1.5141 2.399,2.87965 4.55979,3.41985 0.73728,0.18431 1.74252,-0.53738 2.2799,0 0.53738,0.53737 -0.53738,1.74252 0,2.27989 0.53738,0.53738 1.51993,0 2.2799,0 0.75996,0 1.51993,0 2.27989,0 1.13995,0 2.32376,0.31317 3.41985,0 4.02422,-1.14977 7.11552,-4.39434 10.25954,-6.83969 1.4997,-1.16643 3.21635,-2.0764 4.55979,-3.41984 0.0675,-0.0676 5.37611,-7.00874 5.69974,-7.97964 0.36049,-1.08145 -0.5098,-2.40025 0,-3.41985 0.37999,-0.75996 1.67909,-0.53914 2.2799,-1.13995 0.26869,-0.26869 0,-0.75996 0,-1.13995 0,-0.75996 0,-1.51993 0,-2.27989 0,-4.5598 0,-9.11959 0,-13.67939 0,-2.65988 0,-5.31976 0,-7.97963 0,-1.13995 0.29994,-2.32007 0,-3.41985 -0.85423,-3.13218 -2.73959,-5.94508 -3.41985,-9.11959 -0.4777,-2.22929 0.20642,-4.56916 0,-6.83969 -0.26447,-2.90918 -1.62639,-7.31877 -2.27989,-10.25954 -0.42031,-1.8914 -0.71964,-3.80834 -1.13995,-5.69974 -0.33987,-1.5294 -0.91838,-3.00883 -1.13995,-4.55979 -0.16121,-1.1285 0,-2.2799 0,-3.41985 0,-0.37998 0.12016,-0.77946 0,-1.13995 -2.30068,-6.90204 -0.6546,5.50807 -2.2799,-9.11959 -0.12588,-1.13297 0,-2.27989 0,-3.41984 0,-1.89992 0,-3.79983 0,-5.69974 0,-0.75997 0.14904,-1.53469 0,-2.2799 -0.23565,-1.17828 -0.90429,-2.24157 -1.13995,-3.41985 -0.14904,-0.7452 0,-1.51993 0,-2.27989 0,-2.2799 0.28279,-4.5774 0,-6.8397 -0.24032,-1.92257 -0.89962,-3.77716 -1.13994,-5.69974 -0.23566,-1.88524 0,-3.79983 0,-5.69974 0,-0.75997 0.14904,-1.53469 0,-2.2799 -1.26011,-6.30055 -1.13995,-1.42127 -1.13995,-4.55979 0,-1.80598 0.67973,-3.41985 -2.2799,-3.41985 -0.37998,0 0,0.75997 0,1.13995 0,1.13995 -0.16121,2.29136 0,3.41985 2.51129,17.57901 -0.22303,-13.04743 2.2799,18.23917 0.4253,5.31633 0.67792,10.64602 1.13995,15.95928 0.29808,3.42796 0.94908,6.82395 1.13994,10.25954 0.1897,3.41458 -0.26229,6.84976 0,10.25954 0.43001,5.59004 1.65638,3.82918 3.41985,9.11958 0.6127,1.83812 0.75997,3.79983 1.13995,5.69975 0,2.27989 -0.59988,4.64013 0,6.83969 0.58298,2.13759 3.02349,3.51982 3.41984,5.69974 0.41347,2.27406 -1.13994,4.52835 -1.13994,6.83969 0,2.83318 1.74233,5.29181 2.27989,7.97964 0.14904,0.74521 -0.18432,1.54262 0,2.2799 0.20608,0.8243 0.97332,1.44673 1.13995,2.2799 0.22356,1.11781 -0.1874,2.2954 0,3.41984 0.19755,1.18526 0.90429,2.24157 1.13995,3.41985 0.14904,0.74521 -0.24032,1.55893 0,2.27989 0.16993,0.5098 1.00962,0.61862 1.13995,1.13995 0.27648,1.10592 -0.42337,2.36143 0,3.41985 0.39915,0.99788 1.79925,1.31861 2.2799,2.2799 0.70065,1.4013 0.64451,3.07348 1.13994,4.55979 0.26869,0.80607 0.82439,1.491 1.13995,2.2799 0.44627,1.11566 0.69368,2.30417 1.13995,3.41984 0.63112,1.5778 1.51993,3.03987 2.2799,4.5598 0.75294,1.50588 1.52695,3.05391 2.2799,4.55979 0.37998,0.75997 0.66863,1.57293 1.13994,2.2799 0.65578,0.98366 2.52945,2.52945 3.41985,3.41984 0.37998,0.37999 0.89963,0.65931 1.13995,1.13995 0.53737,1.07476 0.60257,2.34509 1.13995,3.41985 1.03787,2.07575 0.86474,0.66823 2.27989,1.13995 0.80607,0.26868 1.47384,0.87126 2.2799,1.13994 0.36048,0.12017 0.80008,-0.16993 1.13995,0 0.48064,0.24033 0.75996,0.75997 1.13995,1.13995"
       id="path3007"
       style="fill:none;stroke:#000000;stroke-width:1px;stroke-linecap:butt;stroke-linejoin:miter;stroke-opacity:1" />
  </g>
</svg>
